<?xml version="1.0" standalone="no"?>
<!DOCTYPE svg PUBLIC "-//W3C//DTD SVG 20010904//EN"
 "http://www.w3.org/TR/2001/REC-SVG-20010904/DTD/svg10.dtd">
<svg version="1.0" xmlns="http://www.w3.org/2000/svg"
 width="904.000000pt" height="904.000000pt" viewBox="0 0 904.000000 904.000000"
 preserveAspectRatio="xMidYMid meet">
<metadata>
Created by potrace 1.11, written by Peter Selinger 2001-2013
</metadata>
<g transform="translate(0.000000,904.000000) scale(0.100000,-0.100000)"
fill="#000000" stroke="none">
<path d="M3788 9032 c-1 -4 -34 -25 -73 -47 -38 -21 -86 -47 -105 -58 -19 -11
-37 -22 -40 -26 -3 -3 -35 -22 -72 -41 -38 -19 -68 -37 -68 -40 0 -3 -15 -11
-32 -19 -18 -8 -50 -25 -71 -38 -22 -14 -58 -35 -80 -48 -65 -36 -738 -425
-772 -446 -16 -10 -41 -23 -54 -29 -13 -6 -35 -19 -50 -29 -14 -10 -51 -31
-81 -48 -30 -16 -80 -44 -110 -62 -30 -18 -62 -36 -70 -41 -8 -5 -50 -29 -92
-54 -43 -25 -79 -46 -82 -46 -2 0 -34 -18 -70 -40 -36 -22 -70 -40 -76 -40 -5
0 -10 -4 -10 -9 0 -5 -8 -11 -17 -14 -18 -6 -64 -32 -156 -88 -26 -16 -52 -29
-57 -29 -6 0 -10 -4 -10 -9 0 -5 -10 -13 -22 -17 -19 -6 -120 -63 -168 -94 -8
-6 -26 -16 -40 -23 -21 -10 -143 -81 -215 -124 -11 -7 -27 -16 -35 -20 -8 -4
-48 -26 -88 -50 -40 -24 -75 -43 -78 -43 -3 0 -20 -11 -37 -24 -18 -14 -34
-24 -37 -23 -3 0 -16 -6 -30 -15 -79 -48 -273 -158 -280 -158 -5 0 -10 -3 -12
-7 -3 -8 -69 -46 -115 -68 -13 -5 -23 -13 -23 -17 0 -5 -5 -8 -11 -8 -7 0 -31
-12 -55 -27 l-44 -28 0 -2465 0 -2465 172 -100 c94 -55 190 -111 212 -123 23
-13 62 -37 89 -53 26 -16 52 -29 57 -29 6 0 10 -4 10 -10 0 -5 5 -10 11 -10 6
0 48 -22 94 -50 46 -27 88 -50 94 -50 6 0 11 -3 11 -7 0 -5 10 -13 23 -19 37
-18 121 -66 148 -85 15 -10 37 -23 50 -29 13 -6 38 -19 54 -30 17 -10 41 -25
55 -33 35 -19 86 -49 148 -86 29 -17 57 -31 62 -31 6 0 10 -4 10 -10 0 -5 8
-10 18 -10 17 0 18 107 17 2462 l0 2463 85 51 c155 93 235 138 242 139 4 0 17
8 28 18 11 9 27 17 34 17 8 0 16 3 18 8 4 9 57 41 81 49 9 3 17 9 17 14 0 5 6
9 13 9 7 0 29 11 50 25 20 14 37 22 37 18 0 -4 4 -3 8 3 4 6 30 24 57 39 76
42 168 95 185 105 36 23 172 100 175 100 3 0 80 45 155 91 8 5 26 15 40 21 14
7 36 19 50 29 14 9 45 27 70 41 25 14 61 35 80 46 19 11 52 30 72 41 64 35 83
46 88 51 3 3 21 14 40 24 30 16 125 70 255 146 17 9 73 41 125 71 52 29 97 56
100 59 3 3 19 12 35 20 17 8 42 23 58 33 l27 18 0 764 c0 674 -4 810 -22 767z"/>
<path d="M5233 7075 c0 -1075 -2 -1958 -5 -1961 -5 -4 -1088 -8 -1380 -4 l-38
0 0 736 0 736 -22 -16 c-13 -9 -30 -19 -38 -23 -8 -4 -58 -32 -110 -63 -52
-31 -102 -59 -110 -63 -8 -4 -24 -13 -35 -20 -33 -20 -342 -200 -390 -227 -24
-14 -70 -40 -102 -59 -32 -19 -71 -42 -88 -51 -16 -10 -100 -59 -185 -109 -85
-50 -176 -102 -201 -115 -26 -14 -49 -31 -51 -38 -3 -7 -4 -1138 -4 -2514 1
-2305 2 -2502 17 -2517 9 -9 23 -18 30 -19 7 -2 18 -7 24 -11 22 -17 179 -107
187 -107 4 0 8 -4 8 -10 0 -5 4 -10 9 -10 5 0 49 -23 98 -51 48 -29 113 -65
143 -82 30 -16 61 -35 69 -41 20 -16 53 -34 84 -47 15 -6 27 -16 27 -22 0 -6
3 -8 6 -4 3 3 30 -10 59 -29 30 -19 59 -34 65 -34 5 0 10 -4 10 -10 0 -5 4
-10 9 -10 5 0 44 -20 85 -45 42 -25 81 -45 86 -45 6 0 10 -4 10 -10 0 -5 6
-10 14 -10 7 0 19 -7 26 -15 7 -8 16 -12 21 -9 5 3 9 0 9 -5 0 -6 4 -11 9 -11
5 0 55 -27 110 -60 56 -33 106 -60 111 -60 7 0 10 673 10 1954 l0 1954 70 -2
c39 -1 70 2 70 7 0 4 6 5 13 0 16 -10 217 -10 224 0 2 4 9 4 16 0 15 -9 218
-10 224 0 2 4 9 4 16 0 15 -9 218 -10 224 0 2 4 9 4 16 0 15 -9 218 -10 223
-1 3 5 13 4 22 0 9 -4 81 -7 160 -7 l142 2 1 -26 c0 -14 1 -340 1 -723 1 -384
4 -698 8 -698 4 0 173 95 376 211 203 116 385 219 404 230 19 11 44 25 55 31
45 28 70 42 75 42 3 0 10 4 15 9 6 4 100 59 210 122 l200 113 1 2517 0 2518
-53 34 c-29 18 -61 37 -71 40 -9 4 -34 17 -55 30 -21 13 -54 33 -73 44 -41 23
-54 30 -259 149 -88 51 -185 106 -215 123 -30 16 -61 34 -68 40 -19 15 -95 57
-114 64 -10 3 -18 9 -18 14 0 5 -4 9 -9 9 -8 0 -242 132 -266 150 -18 13 -126
70 -134 70 -4 0 -8 -880 -8 -1955z"/>
<path d="M7458 7743 c-2 -5 -4 -1113 -3 -2464 l1 -2456 -173 -99 c-96 -54
-180 -105 -188 -111 -7 -7 -20 -13 -28 -13 -9 0 -17 -3 -19 -8 -4 -9 -147 -92
-159 -92 -5 0 -9 -4 -9 -10 0 -5 -5 -10 -10 -10 -10 0 -169 -88 -180 -100 -3
-3 -23 -15 -45 -27 -109 -58 -808 -460 -822 -472 -7 -6 -14 -11 -16 -11 -5 0
-147 -80 -192 -107 -11 -7 -27 -16 -35 -20 -8 -4 -87 -49 -174 -100 -87 -51
-162 -93 -166 -93 -4 0 -7 -348 -7 -774 l0 -775 41 22 c23 12 43 25 44 30 2 4
9 7 17 7 7 0 18 7 25 15 7 9 15 13 18 10 3 -3 12 1 21 8 9 8 86 53 171 102 85
48 166 95 180 104 14 8 27 16 30 16 3 0 60 33 126 73 67 40 127 72 133 72 6 0
11 3 11 8 0 4 18 16 40 26 22 11 40 24 40 29 0 6 3 8 6 4 4 -3 30 9 58 27 29
19 62 37 74 40 12 4 22 12 22 17 0 5 3 8 8 7 4 -1 18 5 32 14 63 40 361 208
370 208 6 0 10 4 10 9 0 5 15 14 33 22 17 7 34 15 37 18 5 6 20 15 99 59 25
13 57 33 71 42 14 9 30 19 35 21 10 4 145 80 175 99 8 5 53 32 100 58 47 27
177 102 290 167 113 65 221 127 240 138 94 52 126 72 132 82 4 5 8 7 8 3 0 -4
25 8 55 27 30 19 59 35 65 35 5 0 10 4 10 10 0 5 3 9 8 8 7 -2 132 67 182 101
14 9 50 30 80 45 30 16 57 31 60 35 3 4 16 12 30 18 14 7 48 26 75 43 28 16
57 33 65 37 9 5 66 37 128 73 l112 64 0 2466 0 2466 -42 24 c-24 12 -51 30
-60 38 -10 8 -18 11 -18 6 0 -5 -4 -4 -8 1 -4 6 -27 21 -52 34 -25 13 -52 30
-60 37 -8 7 -18 13 -23 13 -4 0 -50 25 -102 56 -52 30 -99 55 -104 55 -6 0
-11 5 -11 10 0 6 -4 10 -9 10 -12 0 -175 93 -179 102 -2 4 -8 8 -14 8 -5 0
-82 42 -171 93 -89 51 -179 101 -199 112 -21 11 -38 23 -38 27 0 5 -5 8 -11 8
-5 0 -58 28 -117 61 -59 34 -110 63 -114 66 -4 2 -8 0 -10 -4z"/>
</g>
</svg>
